HIERARCHY
ROOT Hips
{
  OFFSET 42.584 78.5565 -19.2475
  CHANNELS 6 Xposition Yposition Zposition Zrotation Xrotation Yrotation
  JOINT Chest
  {
    OFFSET 1.23234e-007 14.8421 1.27321e-009
    CHANNELS 6 Xposition Yposition Zposition Zrotation Xrotation Yrotation
    JOINT LeftCollar
    {
      OFFSET 6.64893 27.3161 3.27471
      CHANNELS 6 Xposition Yposition Zposition Zrotation Xrotation Yrotation
      JOINT LeftUpArm
      {
        OFFSET 10.8584 2.41798 -0.945791
        CHANNELS 6 Xposition Yposition Zposition Zrotation Xrotation Yrotation
        JOINT LeftLowArm
        {
          OFFSET 3.77631 -24.5904 -1.70468
          CHANNELS 6 Xposition Yposition Zposition Zrotation Xrotation Yrotation
          JOINT LeftHand
          {
            OFFSET 1.01026 -21.1231 1.74131
            CHANNELS 6 Xposition Yposition Zposition Zrotation Xrotation Yrotation
            End Site
            {
              OFFSET 1.17583e-006 -9.81266 -2.89439e-008
            }
          }
        }
      }
    }
    JOINT RightCollar
    {
      OFFSET -6.11406 27.2248 4.23427
      CHANNELS 6 Xposition Yposition Zposition Zrotation Xrotation Yrotation
      JOINT RightUpArm
      {
        OFFSET -10.4566 2.3285 -0.910794
        CHANNELS 6 Xposition Yposition Zposition Zrotation Xrotation Yrotation
        JOINT RightLowArm
        {
          OFFSET -3.86856 -25.191 -1.74633
          CHANNELS 6 Xposition Yposition Zposition Zrotation Xrotation Yrotation
          JOINT RightHand
          {
            OFFSET -1.04759 -20.6242 1.75213
            CHANNELS 6 Xposition Yposition Zposition Zrotation Xrotation Yrotation
            End Site
            {
              OFFSET -2.03487e-006 -9.50367 -4.31372e-006
            }
          }
        }
      }
    }
    JOINT Neck
    {
      OFFSET 0.51659 29.8236 6.51843
      CHANNELS 6 Xposition Yposition Zposition Zrotation Xrotation Yrotation
      JOINT Head
      {
        OFFSET 1.16803e-007 7.47049 6.44171e-007
        CHANNELS 6 Xposition Yposition Zposition Zrotation Xrotation Yrotation
        End Site
        {
          OFFSET -4.32676e-008 16.2908 2.16786e-007
        }
      }
    }
  }
  JOINT LeftUpLeg
  {
    OFFSET 9 -3.38008e-006 -5.23002e-009
    CHANNELS 6 Xposition Yposition Zposition Zrotation Xrotation Yrotation
    JOINT LeftLowLeg
    {
      OFFSET -0.575 -51.431 3.90177
      CHANNELS 6 Xposition Yposition Zposition Zrotation Xrotation Yrotation
      JOINT LeftFoot
      {
        OFFSET 2.13082e-007 -43.5882 -3.90177
        CHANNELS 6 Xposition Yposition Zposition Zrotation Xrotation Yrotation
        End Site
        {
          OFFSET 7.44796e-007 -6.93413 15.0046
        }
      }
    }
  }
  JOINT RightUpLeg
  {
    OFFSET -9 6.86154e-007 -3.19541e-009
    CHANNELS 6 Xposition Yposition Zposition Zrotation Xrotation Yrotation
    JOINT RightLowLeg
    {
      OFFSET 0.575 -51.4311 3.90177
      CHANNELS 6 Xposition Yposition Zposition Zrotation Xrotation Yrotation
      JOINT RightFoot
      {
        OFFSET -7.46079e-007 -43.5882 -3.90177
        CHANNELS 6 Xposition Yposition Zposition Zrotation Xrotation Yrotation
        End Site
        {
          OFFSET 4.66716e-007 -6.93413 15.0046
        }
      }
    }
  }
}
MOTION
Frames:	12
Frame Time:	0.0333333
42.584 78.5565 -19.2475 1.22798 -10.1084 -0.305682 1.23234e-007 14.8421 1.27321e-009 -1.44895 11.4586 -1.80329 6.64893 27.3161 3.27471 -2.94784 5.93879 -4.20517 10.8584 2.41798 -0.945791 56.4382 -70.3872 6.9623 3.77631 -24.5904 -1.70468 6.96331 -6.19244 -39.7614 1.01026 -21.1231 1.74131 21.5531 -5.96749 3.08347 -6.11406 27.2248 4.23427 -1.96452 7.32629 3.42623 -10.4566 2.3285 -0.910794 -51.8862 -80.6317 -1.11851 -3.86856 -25.191 -1.74633 -7.71506 -1.20419 74.3261 -1.04759 -20.6242 1.75213 -12.9642 4.45668 -1.20839 0.51659 29.8236 6.51843 -2.78479 -12.6731 0.420334 1.16803e-007 7.47049 6.44171e-007 -0.83502 22.8599 0.374895 9 -3.38008e-006 -5.23002e-009 24.8979 -20.981 19.7117 -0.575 -51.431 3.90177 -12.6999 66.576 -16.2116 2.13082e-007 -43.5882 -3.90177 28.0912 -15.7263 1.04524 -9 6.86154e-007 -3.19541e-009 -27.2523 -22.5547 -22.5078 0.575 -51.4311 3.90177 -9.67755 67.4943 22.4981 -7.46079e-007 -43.5882 -3.90177 -18.1754 -21.8179 -1.5933 
42.5969 78.5617 -19.2453 1.20734 -10.0991 -0.307285 1.23234e-007 14.8421 1.27321e-009 -1.41875 11.4688 -1.80077 6.64893 27.3161 3.27471 -2.94784 5.93879 -4.20517 10.8584 2.41798 -0.945791 56.2257 -70.3759 6.66327 3.77631 -24.5904 -1.70468 7.02677 -6.22115 -39.6443 1.01026 -21.1231 1.74131 21.5239 -5.92041 3.07253 -6.11406 27.2248 4.23427 -1.96452 7.32629 3.42623 -10.4566 2.3285 -0.910794 -52.0196 -80.6331 -1.29423 -3.86856 -25.191 -1.74633 -7.74622 -1.17007 74.3774 -1.04759 -20.6242 1.75213 -12.9742 4.58832 -1.20303 0.51659 29.8236 6.51843 -2.7969 -12.669 0.437081 1.16803e-007 7.47049 6.44171e-007 -0.825759 22.8424 0.383907 9 -3.38008e-006 -5.23002e-009 24.8932 -20.9874 19.6866 -0.575 -51.431 3.90177 -12.6786 66.5754 -16.2144 2.13082e-007 -43.5882 -3.90177 28.1457 -15.7804 1.06127 -9 6.86154e-007 -3.19541e-009 -27.2582 -22.6133 -22.5026 0.575 -51.4311 3.90177 -9.7284 67.5509 22.4985 -7.46079e-007 -43.5882 -3.90177 -18.2172 -21.98 -1.62292 
42.6185 78.5501 -19.2419 1.19174 -10.0445 -0.316427 1.23234e-007 14.8421 1.27321e-009 -1.42084 11.4093 -1.75075 6.64893 27.3161 3.27471 -2.94784 5.93879 -4.20517 10.8584 2.41798 -0.945791 55.8471 -70.3988 6.24118 3.77631 -24.5904 -1.70468 7.14227 -6.27762 -39.4992 1.01026 -21.1231 1.74131 21.392 -5.89105 3.04549 -6.11406 27.2248 4.23427 -1.96452 7.32629 3.42623 -10.4566 2.3285 -0.910794 -52.1357 -80.5719 -1.42134 -3.86856 -25.191 -1.74633 -7.74534 -1.10562 74.3092 -1.04759 -20.6242 1.75213 -13.0449 4.70851 -1.20328 0.51659 29.8236 6.51843 -2.75833 -12.5705 0.446973 1.16803e-007 7.47049 6.44171e-007 -0.811309 22.732 0.394725 9 -3.38008e-006 -5.23002e-009 24.9012 -21.0753 19.6825 -0.575 -51.431 3.90177 -12.689 66.6461 -16.2444 2.13082e-007 -43.5882 -3.90177 28.0537 -15.7061 1.03862 -9 6.86154e-007 -3.19541e-009 -27.3164 -22.6847 -22.5816 0.575 -51.4311 3.90177 -9.68725 67.5902 22.481 -7.46079e-007 -43.5882 -3.90177 -18.2401 -22.0735 -1.63987 
42.5965 78.5625 -19.1979 1.2097 -10.0245 -0.238109 1.23233e-007 14.8421 1.27321e-009 -1.45194 11.3356 -1.83545 6.64893 27.3161 3.27471 -2.94784 5.93879 -4.20517 10.8584 2.41798 -0.945791 55.9006 -70.3533 6.51909 3.77631 -24.5904 -1.70468 7.07298 -6.21959 -39.9327 1.01026 -21.1231 1.74131 21.5495 -5.94306 3.07999 -6.11406 27.2248 4.23427 -1.96452 7.32629 3.42623 -10.4566 2.3285 -0.910794 -51.2416 -80.499 -0.583364 -3.86856 -25.191 -1.74633 -7.80704 -1.22523 74.4879 -1.04759 -20.6242 1.75213 -13.0538 4.65687 -1.20643 0.51659 29.8236 6.51843 -2.75608 -12.4938 0.431304 1.16803e-007 7.47049 6.44171e-007 -0.767121 22.5412 0.363325 9 -3.38008e-006 -5.23002e-009 24.7731 -21.1234 19.4937 -0.575 -51.431 3.90177 -12.4831 66.6132 -16.2628 2.13082e-007 -43.5882 -3.90177 28.0129 -15.6835 1.03117 -9 6.86154e-007 -3.19541e-009 -27.2589 -22.5303 -22.5572 0.575 -51.4311 3.90177 -9.612 67.4579 22.4272 -7.46079e-007 -43.5882 -3.90177 -18.1917 -21.8562 -1.60093 
42.6114 78.5924 -19.1886 1.24947 -10.078 -0.241298 1.23233e-007 14.8421 1.27321e-009 -1.51451 11.4435 -1.80637 6.64893 27.3161 3.27471 -2.94784 5.93879 -4.20517 10.8584 2.41798 -0.945791 56.1479 -70.521 7.01769 3.77631 -24.5904 -1.70468 7.05862 -6.01505 -40.3244 1.01026 -21.1231 1.74131 21.5108 -6.09221 3.09102 -6.11406 27.2248 4.23427 -1.96452 7.32629 3.42623 -10.4566 2.3285 -0.910794 -51.1477 -80.5125 -0.536362 -3.86856 -25.191 -1.74633 -7.83341 -1.24668 74.6514 -1.04759 -20.6242 1.75213 -12.9946 4.66478 -1.20124 0.51659 29.8236 6.51843 -2.64936 -12.4586 0.348207 1.16803e-007 7.47049 6.44171e-007 -0.857099 22.3375 0.342636 9 -3.38008e-006 -5.23002e-009 24.671 -21.0087 19.4369 -0.575 -51.431 3.90177 -12.4334 66.493 -16.1887 2.13082e-007 -43.5882 -3.90177 28.1731 -15.7995 1.06714 -9 6.86154e-007 -3.19541e-009 -27.3019 -22.5618 -22.5059 0.575 -51.4311 3.90177 -9.73798 67.5202 22.507 -7.46079e-007 -43.5882 -3.90177 -18.2566 -22.0813 -1.64295 
42.6165 78.611 -19.1944 1.30411 -10.0788 -0.269893 1.23233e-007 14.8421 1.27321e-009 -1.84569 11.5425 -1.67686 6.64893 27.3161 3.27471 -2.94784 5.93879 -4.20517 10.8584 2.41798 -0.945791 56.5919 -70.5502 7.26762 3.77631 -24.5904 -1.70468 7.03721 -6.42572 -40.582 1.01026 -21.1231 1.74131 21.1758 -6.02495 3.02306 -6.11406 27.2248 4.23427 -1.96452 7.32629 3.42623 -10.4566 2.3285 -0.910794 -51.2631 -80.5297 -0.936898 -3.86856 -25.191 -1.74633 -7.72245 -0.969566 74.4761 -1.04759 -20.6242 1.75213 -12.9774 4.72223 -1.19712 0.51659 29.8236 6.51843 -2.12637 -12.5273 0.299777 1.16803e-007 7.47049 6.44171e-007 -1.06458 22.1841 0.489668 9 -3.38008e-006 -5.23002e-009 24.6867 -21.044 19.5423 -0.575 -51.431 3.90177 -12.5153 66.5985 -16.4296 2.13082e-007 -43.5882 -3.90177 27.8643 -15.5138 0.982943 -9 6.86154e-007 -3.19541e-009 -27.3702 -22.5668 -22.5415 0.575 -51.4311 3.90177 -9.72313 67.4967 22.5076 -7.46079e-007 -43.5882 -3.90177 -18.2608 -22.0132 -1.63281 
42.6007 78.6435 -19.1753 1.33418 -10.0938 -0.201361 1.23233e-007 14.8421 1.27321e-009 -2.07607 11.6418 -1.715 6.64893 27.3161 3.27471 -2.94784 5.93879 -4.20517 10.8584 2.41798 -0.945791 57.1737 -70.4323 7.71795 3.77631 -24.5904 -1.70468 6.8522 -6.80184 -41.1075 1.01026 -21.1231 1.74131 21.2812 -5.86573 3.0227 -6.11406 27.2248 4.23427 -1.96452 7.32629 3.42623 -10.4566 2.3285 -0.910794 -50.4861 -80.5702 -0.463918 -3.86856 -25.191 -1.74633 -7.77787 -0.791968 74.4308 -1.04759 -20.6242 1.75213 -13.1777 4.66496 -1.21626 0.51659 29.8236 6.51843 -1.84131 -12.6049 0.369146 1.16803e-007 7.47049 6.44171e-007 -1.03949 21.974 0.606534 9 -3.38008e-006 -5.23002e-009 24.5861 -21.0315 19.4389 -0.575 -51.431 3.90177 -12.3797 66.5367 -16.5605 2.13082e-007 -43.5882 -3.90177 27.8624 -15.4853 0.975622 -9 6.86154e-007 -3.19541e-009 -27.3762 -22.4403 -22.574 0.575 -51.4311 3.90177 -9.657 67.4168 22.4068 -7.46079e-007 -43.5882 -3.90177 -18.2728 -21.9346 -1.62196 
42.6092 78.5369 -19.1523 1.32899 -10.1159 -0.261305 1.23233e-007 14.8421 1.27321e-009 -2.02973 11.659 -1.6606 6.64893 27.3161 3.27471 -2.94784 5.93879 -4.20517 10.8584 2.41798 -0.945791 57.4538 -70.5501 8.08424 3.77631 -24.5904 -1.70468 6.81208 -6.62325 -41.256 1.01026 -21.1231 1.74131 21.4884 -5.97522 3.07288 -6.11406 27.2248 4.23427 -1.96452 7.32629 3.42623 -10.4566 2.3285 -0.910794 -50.5461 -80.7283 -0.54037 -3.86856 -25.191 -1.74633 -7.8302 -0.842032 74.5425 -1.04759 -20.6242 1.75213 -13.4313 4.78078 -1.23092 0.51659 29.8236 6.51843 -1.93553 -12.4952 0.393977 1.16803e-007 7.47049 6.44171e-007 -1.06064 21.6387 0.612705 9 -3.38008e-006 -5.23002e-009 24.6346 -20.9624 19.4637 -0.575 -51.431 3.90177 -12.5694 66.5813 -16.1587 2.13082e-007 -43.5882 -3.90177 28.2813 -15.9015 1.09781 -9 6.86154e-007 -3.19541e-009 -27.4406 -22.6471 -22.5247 0.575 -51.4311 3.90177 -9.9088 67.7527 22.589 -7.46079e-007 -43.5882 -3.90177 -18.3564 -22.3919 -1.70235 
42.5718 78.4104 -19.1053 1.26787 -10.1074 -0.341774 1.23233e-007 14.8421 1.27321e-009 -1.99308 11.5613 -1.55509 6.64893 27.3161 3.27471 -2.94784 5.93879 -4.20517 10.8584 2.41798 -0.945791 57.5376 -70.5563 8.06218 3.77631 -24.5904 -1.70468 6.77936 -6.70472 -41.1045 1.01026 -21.1231 1.74131 21.4957 -6.19262 3.10062 -6.11406 27.2248 4.23427 -1.96452 7.32629 3.42623 -10.4566 2.3285 -0.910794 -50.5595 -80.8136 -0.571609 -3.86856 -25.191 -1.74633 -7.79359 -0.950424 74.6788 -1.04759 -20.6242 1.75213 -13.3725 4.93988 -1.2184 0.51659 29.8236 6.51843 -1.92028 -12.4498 0.370071 1.16803e-007 7.47049 6.44171e-007 -1.14216 21.4185 0.621464 9 -3.38008e-006 -5.23002e-009 24.8411 -21.0356 19.5603 -0.575 -51.431 3.90177 -12.7767 66.8917 -16.0746 2.13082e-007 -43.5882 -3.90177 28.2082 -15.9316 1.10247 -9 6.86154e-007 -3.19541e-009 -27.2921 -22.8008 -22.3294 0.575 -51.4311 3.90177 -10.1791 67.975 22.6697 -7.46079e-007 -43.5882 -3.90177 -18.3766 -22.6577 -1.74634 
42.5656 78.4018 -19.0929 1.28446 -10.0328 -0.337529 1.23233e-007 14.8421 1.27321e-009 -2.0481 11.4521 -1.43378 6.64893 27.3161 3.27471 -2.94784 5.93879 -4.20517 10.8584 2.41798 -0.945791 57.2368 -70.5453 7.73696 3.77631 -24.5904 -1.70468 6.6735 -7.03416 -40.8681 1.01026 -21.1231 1.74131 21.3079 -6.25486 3.07424 -6.11406 27.2248 4.23427 -1.96452 7.32629 3.42623 -10.4566 2.3285 -0.910794 -50.4371 -80.7613 -0.454165 -3.86856 -25.191 -1.74633 -7.80051 -0.953679 74.6615 -1.04759 -20.6242 1.75213 -13.3618 5.09724 -1.20968 0.51659 29.8236 6.51843 -1.77755 -12.5685 0.359467 1.16803e-007 7.47049 6.44171e-007 -1.28569 21.4335 0.694749 9 -3.38008e-006 -5.23002e-009 24.8278 -21.1037 19.5617 -0.575 -51.431 3.90177 -12.7709 66.8966 -16.0246 2.13082e-007 -43.5882 -3.90177 28.2307 -15.958 1.11024 -9 6.86154e-007 -3.19541e-009 -27.3344 -22.8529 -22.3952 0.575 -51.4311 3.90177 -10.15 67.9768 22.6025 -7.46079e-007 -43.5882 -3.90177 -18.3844 -22.6477 -1.74565 
42.584 78.4101 -19.0815 1.35307 -9.9741 -0.34433 1.23233e-007 14.8421 1.27321e-009 -2.21155 11.3395 -1.28835 6.64893 27.3161 3.27471 -2.94784 5.93879 -4.20517 10.8584 2.41798 -0.945791 56.7843 -70.5783 7.24247 3.77631 -24.5904 -1.70468 6.61241 -7.29615 -40.6127 1.01026 -21.1231 1.74131 21.141 -6.22253 3.04019 -6.11406 27.2248 4.23427 -1.96452 7.32629 3.42623 -10.4566 2.3285 -0.910794 -50.2336 -80.6623 -0.346698 -3.86856 -25.191 -1.74633 -7.82429 -0.993149 74.4961 -1.04759 -20.6242 1.75213 -13.2481 4.80123 -1.2145 0.51659 29.8236 6.51843 -1.58709 -12.6699 0.306235 1.16803e-007 7.47049 6.44171e-007 -1.33333 21.5295 0.7066 9 -3.38008e-006 -5.23002e-009 24.7352 -21.1353 19.5461 -0.575 -51.431 3.90177 -12.7822 66.8658 -15.9614 2.13082e-007 -43.5882 -3.90177 28.2286 -15.9459 1.10703 -9 6.86154e-007 -3.19541e-009 -27.4886 -22.8964 -22.5223 0.575 -51.4311 3.90177 -10.0935 67.9888 22.6378 -7.46079e-007 -43.5882 -3.90177 -18.3816 -22.5609 -1.73173 
42.5923 78.404 -19.0436 1.37829 -9.99728 -0.341871 1.23233e-007 14.8421 1.27321e-009 -2.25121 11.2983 -1.24495 6.64893 27.3161 3.27471 -2.94784 5.93879 -4.20517 10.8584 2.41798 -0.945791 56.5414 -70.5555 6.98617 3.77631 -24.5904 -1.70468 6.57104 -7.39293 -40.643 1.01026 -21.1231 1.74131 21.0835 -6.24865 3.03286 -6.11406 27.2248 4.23427 -1.96452 7.32629 3.42623 -10.4566 2.3285 -0.910794 -49.8867 -80.671 -0.0526148 -3.86856 -25.191 -1.74633 -7.82212 -1.03121 74.4955 -1.04759 -20.6242 1.75213 -12.999 4.44841 -1.21186 0.51659 29.8236 6.51843 -1.54051 -12.5877 0.263524 1.16803e-007 7.47049 6.44171e-007 -1.32518 21.3561 0.673505 9 -3.38008e-006 -5.23002e-009 24.6866 -21.0882 19.5095 -0.575 -51.431 3.90177 -12.7727 66.8613 -15.9081 2.13082e-007 -43.5882 -3.90177 28.2511 -16.0047 1.12315 -9 6.86154e-007 -3.19541e-009 -27.5267 -22.853 -22.5281 0.575 -51.4311 3.90177 -10.1019 68.0093 22.681 -7.46079e-007 -43.5882 -3.90177 -18.4007 -22.6303 -1.74481 
